<svg width="43" height="64" viewBox="0 0 43 64" fill="none" xmlns="http://www.w3.org/2000/svg">
<path fill-rule="evenodd" clip-rule="evenodd" d="M18.8512 13.5995C18.5817 16.4437 16.3999 20.4391 14.6472 22.7492C12.6435 25.2645 10.1066 27.304 7.21957 28.7205C5.68133 29.4567 2.27878 30.6921 0.154675 30.6921V31.0036C1.71016 31.133 10.0934 35.8673 20.2838 29.4761C21.5703 28.6677 23.9655 26.7985 24.8613 25.6408C25.9204 24.2713 27.4813 22.2409 28.7128 21.2347C29.6375 20.5389 30.705 20.0569 31.8384 19.8234C32.9718 19.59 34.1429 19.6108 35.2673 19.8845C39.4266 21.0385 42.8442 25.7389 42.8442 29.1339H43V20.5437C42.8478 16.7958 41.7177 13.153 39.722 9.97708C38.4618 7.86861 34.9348 4.07262 32.8732 3.3132C29.4529 3.0615 26.1101 5.36562 24.3186 6.87044C23.1829 7.82443 19.6139 11.7676 19.0458 13.1188C19.0275 13.1635 18.9655 13.323 18.952 13.357L18.8512 13.5995Z" fill="url(#paint0_linear)"/>
<path fill-rule="evenodd" clip-rule="evenodd" d="M18.8512 13.6L18.9525 13.3574C18.966 13.3235 19.028 13.1639 19.0463 13.1192C19.6144 11.768 23.183 7.82485 24.3191 6.87086C26.1107 5.36604 29.4534 3.06193 32.8737 3.31363C32.1777 2.76123 31.4057 2.31213 30.5815 1.9802C27.9295 0.809944 25.0845 0.138653 22.1891 0H20.604C16.852 0.179574 13.2107 1.32908 10.0357 3.33626C7.08162 5.27827 4.61039 7.86971 2.81076 10.9126C0.958835 14.1255 0 17.8417 0 22.9027C2.13949 22.9919 4.28065 22.7717 6.35721 22.2489C8.12186 21.8292 9.82033 21.1685 11.4047 20.2854C11.7863 20.0547 12.1307 19.8467 12.4746 19.6414L16.3999 16.5557C16.7584 16.1639 16.837 15.9628 17.2558 15.5419L18.8512 13.6Z" fill="url(#paint1_linear)"/>
<path fill-rule="evenodd" clip-rule="evenodd" d="M24.151 49.8682C24.4204 47.024 26.6022 43.0291 28.355 40.7185C30.3585 38.2031 32.8954 36.1635 35.7826 34.7472C37.3208 34.0109 40.7234 32.7756 42.8475 32.7756V32.4641C41.2915 32.3347 32.9088 27.6004 22.7184 33.9916C21.4318 34.8 19.0361 36.6692 18.1408 37.8269C17.0818 39.1964 15.5209 41.2268 14.2893 42.233C13.3644 42.9283 12.2968 43.4098 11.1634 43.6428C10.03 43.8758 8.85902 43.8545 7.73484 43.5805C3.57503 42.4265 0.15793 37.7261 0.15793 34.3311H0.00216484V42.9213C0.154265 46.6692 1.28437 50.312 3.28021 53.4879C4.54034 55.5964 8.06739 59.3924 10.129 60.1518C13.5493 60.4035 16.892 58.0994 18.6836 56.5946C19.8197 55.64 23.3883 51.6974 23.9564 50.3462C23.9747 50.3015 24.0367 50.1419 24.0502 50.108L24.151 49.8682Z" fill="url(#paint2_linear)"/>
<path fill-rule="evenodd" clip-rule="evenodd" d="M24.1504 49.8681L24.0496 50.1106C24.0361 50.1446 23.9741 50.3046 23.9558 50.3488C23.3877 51.7006 19.8192 55.6432 18.683 56.5972C16.8915 58.102 13.5488 60.4062 10.1284 60.1545C10.8242 60.7071 11.596 61.1563 12.4202 61.4883C15.0722 62.6585 17.9172 63.3298 20.8125 63.4686H22.3977C26.1497 63.289 29.791 62.1394 32.9659 60.1318C35.9191 58.1899 38.3894 55.5985 40.1882 52.5559C42.0401 49.3436 42.9995 45.6269 42.9995 40.5659C40.8601 40.4767 38.7191 40.6969 36.6428 41.2197C34.878 41.6396 33.1794 42.3003 31.5947 43.1832C31.2131 43.4139 30.8693 43.6213 30.5249 43.8299L26.5995 46.9156C26.2411 47.3074 26.1624 47.5084 25.7436 47.9293L24.1504 49.8681Z" fill="url(#paint3_linear)"/>
<defs>
<linearGradient id="paint0_linear" x1="11.8086" y1="32.2217" x2="22.0747" y2="0.850527" gradientUnits="userSpaceOnUse">
<stop stop-color="#F15A24"/>
<stop offset="1" stop-color="#E3450C"/>
</linearGradient>
<linearGradient id="paint1_linear" x1="0.0657475" y1="10.1544" x2="32.3666" y2="15.4566" gradientUnits="userSpaceOnUse">
<stop stop-color="#E3450C"/>
<stop offset="1" stop-color="#A62E02"/>
</linearGradient>
<linearGradient id="paint2_linear" x1="11.6561" y1="31.2459" x2="21.9205" y2="62.6148" gradientUnits="userSpaceOnUse">
<stop stop-color="#F15A24"/>
<stop offset="1" stop-color="#E3450C"/>
</linearGradient>
<linearGradient id="paint3_linear" x1="10.1942" y1="53.3142" x2="42.4925" y2="48.0128" gradientUnits="userSpaceOnUse">
<stop stop-color="#E3450C"/>
<stop offset="1" stop-color="#A62E02"/>
</linearGradient>
</defs>
</svg>
